#tb 0: 1/1000
0,          0,          0,        0,     6534, 69f9028d52f95d2e7f986c57b19fc018
0,         33,         33,        0,     6534, 068e611f62b3f6222f6b1699748c8fbf
0,         66,         66,        0,     6534, 3d3fec78ff2274241a7958f17a773a19
0,        100,        100,        0,     6534, 93d71ef1a2d00c7e70e76ccc1859143d
0,        133,        133,        0,     6534, 5a35a640d52bc0930825b963b0b9e830
0,        166,        166,        0,     6534, 782223239e6b1ca1bedbd25d9652a07c
0,        200,        200,        0,     6534, a4b5e8a319cbc9a12d3e36127c7f0fbb
0,        233,        233,        0,     6534, a3e2d9a78fa42b3c817aadfd31fd2d16
0,        266,        266,        0,     6534, e9fc6b83535735f46006f3e4b376755f
0,        300,        300,        0,     6534, 80223f600dfe86021bd0e83fecdc4b2b
